<svg xmlns="http://www.w3.org/2000/svg" viewBox="0 0 32 32" fill="none" aria-hidden="true">
  <title>RepeaTrack</title>
  <!-- Repeat (loyalty / return visits) + column chart (tracking / reports); matches LogoMark.jsx -->
  <rect width="32" height="32" rx="9" fill="#0a0d0c" />
  <g fill="none" stroke-linecap="round" stroke-linejoin="round">
    <g transform="translate(4 10) scale(0.5)" stroke="#4ade80" stroke-width="2.5">
      <path d="m2 9 3-3 3 3" />
      <path d="M13 18H7a2 2 0 0 1-2-2V6" />
      <path d="m22 15-3 3-3-3" />
      <path d="M11 6h6a2 2 0 0 1 2 2v10" />
    </g>
    <g transform="translate(18 10) scale(0.5)" stroke="#22c55e" stroke-width="2.5">
      <path d="M3 3v16a2 2 0 0 0 2 2h16" />
      <path d="M18 17V9" />
      <path d="M13 17V5" />
      <path d="M8 17v-3" />
    </g>
  </g>
</svg>
